<svg width="26" height="26" viewBox="0 0 26 26" fill="none" xmlns="http://www.w3.org/2000/svg">
<g clip-path="url(#clip0_1894_240)">
<path opacity="0.3" d="M6.66664 20.3889C6.66664 21.55 7.61664 22.5 8.77775 22.5H17.2222C18.3833 22.5 19.3333 21.55 19.3333 20.3889V7.72222H6.66664V20.3889ZM9.26331 12.8733L10.7516 11.385L13 13.6228L15.2378 11.385L16.7261 12.8733L14.4883 15.1111L16.7261 17.3489L15.2378 18.8372L13 16.5994L10.7622 18.8372L9.27386 17.3489L11.5116 15.1111L9.26331 12.8733ZM16.6944 4.55556L15.6389 3.5H10.3611L9.30553 4.55556H5.61108V6.66667H20.3889V4.55556H16.6944Z" fill="black"/>
</g>
<defs>
<clipPath id="clip0_1894_240">
<rect width="25.3333" height="25.3333" fill="white" transform="translate(0.333252 0.333313)"/>
</clipPath>
</defs>
</svg>
